#!OML:ASF F:\VICON\USERDATA\INSTALL\Justin_Nancy\Justin_Nancy.ASF
:FULLY-SPECIFIED
:DEGREES
112
root 9.91071 17.7052 -12.9202 -1.75469 -7.2156 4.76488
lowerback 5.91998 0.678253 -3.22836
upperback 0.38693 0.73116 1.41326
thorax -2.98069 0.415118 3.21379
lowerneck -16.4152 -3.59438 -9.75089
upperneck 26.1788 -3.56343 4.34352
head 11.524 -2.05077 2.72745
rclavicle 0 -1.43125e-014
rhumerus -30.6076 -14.9217 -77.1235
rradius 29.0547
rwrist 9.4856
rhand -12.3704 12.1129
rfingers 7.12502
rthumb 13.7 -17.4161
lclavicle 0 -1.43125e-014
lhumerus -32.9236 12.4265 82.1904
lradius 23.3851
lwrist -12.0148
lhand -14.7847 25.1803
lfingers 7.12502
lthumb 11.3724 54.8519
rfemur -16.2145 -1.69082 18.2919
rtibia 69.752
rfoot 4.39301 -7.07411
rtoes 11.8167
lfemur -8.3061 1.11233 -27.9986
ltibia 18.3465
lfoot -6.65047 -2.19028
ltoes 1.49457
113
root 9.90862 17.694 -12.7957 -2.02455 -7.40908 4.8179
lowerback 6.27324 0.642 -3.26904
upperback 0.392458 0.671427 1.4745
thorax -3.16955 0.389714 3.30378
lowerneck -16.3675 -3.5642 -9.87471
upperneck 26.273 -3.51 4.40202
head 11.5503 -2.03462 2.78006
rclavicle -2.34069e-014 -1.27222e-014
rhumerus -30.689 -15.3115 -76.8102
rradius 28.7703
rwrist 9.78047
rhand -12.4531 11.6065
rfingers 7.12502
rthumb 13.6203 -17.9279
lclavicle -2.34069e-014 -1.27222e-014
lhumerus -32.6948 11.879 82.4877
lradius 23.832
lwrist -11.4726
lhand -15.7011 21.6948
lfingers 7.12502
lthumb 10.4885 51.4132
rfemur -16.9993 -1.84703 18.1812
rtibia 70.1836
rfoot 3.42075 -8.03707
rtoes 15.2405
lfemur -7.74023 1.0361 -28.119
ltibia 18.703
lfoot -7.48025 -1.74898
ltoes 0.325538
114
root 9.89918 17.6888 -12.6676 -2.09216 -7.38397 4.8442
lowerback 6.27149 0.527561 -3.27463
upperback 0.370902 0.51861 1.4787
thorax -3.17842 0.314261 3.32515
lowerneck -16.1858 -3.5407 -9.84479
upperneck 26.3265 -3.49931 4.3701
head 11.5323 -2.03448 2.76675
rclavicle 1.74185e-014 -2.38542e-014
rhumerus -31.1052 -15.3734 -76.6868
rradius 28.905
rwrist 9.7383
rhand -12.7027 11.1612
rfingers 7.12502
rthumb 13.3798 -18.3892
lclavicle 1.74185e-014 -2.38542e-014
lhumerus -32.4319 11.5565 82.5492
lradius 24.092
lwrist -11.3963
lhand -14.1704 25.6512
lfingers 7.12502
lthumb 11.9648 55.2892
rfemur -17.9626 -2.1868 18.176
rtibia 70.3676
rfoot 2.48436 -8.96401
rtoes 17.1713
lfemur -7.44751 1.15211 -28.2139
ltibia 19.2282
lfoot -8.3511 -1.62949
ltoes -1.12852
115
root 9.88386 17.6854 -12.5445 -1.98255 -7.28634 4.75321
lowerback 6.07495 0.381807 -3.28184
upperback 0.357582 0.332277 1.56024
thorax -3.06719 0.220217 3.43082
lowerneck -15.8852 -3.55191 -9.85671
upperneck 26.2477 -3.52626 4.30378
head 11.4438 -2.05855 2.74081
rclavicle -2.38542e-015 -1.27222e-014
rhumerus -31.477 -15.3921 -76.5668
rradius 29.181
rwrist 9.48065
rhand -12.8244 10.8049
rfingers 7.12502
rthumb 13.2624 -18.7531
lclavicle -2.38542e-015 -1.27222e-014
lhumerus -32.2084 11.1667 82.6736
lradius 24.3804
lwrist -11.1252
lhand -14.0311 24.3214
lfingers 7.12502
lthumb 12.0991 53.9515
rfemur -19.082 -2.48741 18.3887
rtibia 70.3679
rfoot 1.37748 -9.7994
rtoes 17.6571
lfemur -7.35661 1.41424 -28.1408
ltibia 19.7411
lfoot -8.81349 -1.55896
ltoes -0.775884
116
root 9.87322 17.6709 -12.4203 -2.01054 -7.26717 4.80871
lowerback 6.01529 0.18011 -3.46778
upperback 0.310666 0.0556128 1.66505
thorax -3.05947 0.0863209 3.66904
lowerneck -15.3108 -3.4455 -10.0701
upperneck 26.0178 -3.40962 4.42138
head 11.239 -2.01562 2.83841
rclavicle -1.2424e-014 1.98785e-014
rhumerus -31.7602 -15.3485 -76.357
rradius 29.1001
rwrist 9.25402
rhand -12.9372 10.7729
rfingers 7.12502
rthumb 13.1537 -18.7922
lclavicle -1.2424e-014 1.98785e-014
lhumerus -32.2545 11.2814 82.6536
lradius 24.6768
lwrist -11.1514
lhand -14.3281 26.8458
lfingers 7.12502
lthumb 11.8127 56.4926
rfemur -19.9871 -2.72915 18.3627
rtibia 70.1987
rfoot 0.342776 -10.4191
rtoes 19.5158
lfemur -7.18127 1.64951 -28.2358
ltibia 20.3919
lfoot -9.02003 -1.16989
ltoes 0.26385
117
root 9.86666 17.6524 -12.2998 -2.11932 -7.16105 5.02494
lowerback 6.19411 -0.0491236 -3.75717
upperback 0.182951 -0.275526 1.69992
thorax -3.26127 -0.0673553 3.90015
lowerneck -15.0946 -3.31604 -10.138
upperneck 26.0644 -3.24302 4.45067
head 11.2011 -1.94776 2.88703
rclavicle 7.00716e-015 9.54166e-015
rhumerus -32.1296 -15.045 -76.2513
rradius 28.9124
rwrist 8.51265
rhand -13.3855 11.1567
rfingers 7.12502
rthumb 12.7215 -18.4358
lclavicle 7.00716e-015 9.54166e-015
lhumerus -32.3311 11.6977 82.4625
lradius 24.8515
lwrist -11.6323
lhand -14.5479 24.1243
lfingers 7.12502
lthumb 11.6007 53.7832
rfemur -20.8069 -3.04781 18.1161
rtibia 69.9064
rfoot -0.962093 -10.7447
rtoes 19.9204
lfemur -7.07428 1.54876 -28.5151
ltibia 21.2994
lfoot -9.47224 -0.741856
ltoes 1.27811
118
root 9.85427 17.6436 -12.1815 -2.127 -6.99795 4.99447
lowerback 6.29283 -0.174643 -3.70737
upperback 0.234846 -0.443179 1.67391
thorax -3.24734 -0.153063 3.86025
lowerneck -15.7285 -3.33312 -9.87337
upperneck 26.3669 -3.25042 4.35634
head 11.4351 -1.93555 2.80704
rclavicle -7.20594e-016 7.15625e-015
rhumerus -32.1875 -15.1253 -76.2823
rradius 28.8691
rwrist 7.98244
rhand -13.5326 11.5826
rfingers 7.12502
rthumb 12.5797 -18.0186
lclavicle -7.20594e-016 7.15625e-015
lhumerus -31.9104 11.0899 82.6062
lradius 25.2996
lwrist -11.1393
lhand -14.5963 25.0171
lfingers 7.12502
lthumb 11.554 54.6786
rfemur -21.6337 -3.35585 18.23
rtibia 69.4071
rfoot -2.33052 -11.0362
rtoes 18.706
lfemur -7.01377 1.59413 -28.509
ltibia 22.2709
lfoot -10.3792 -0.6458
ltoes 1.20185
119
root 9.84069 17.6323 -12.069 -2.11727 -6.98975 4.92818
lowerback 6.28861 -0.244352 -3.65543
upperback 0.347277 -0.530395 1.70978
thorax -3.12026 -0.202001 3.87477
lowerneck -16.0629 -3.44688 -9.75262
upperneck 26.428 -3.36189 4.18044
head 11.53 -1.99324 2.70274
rclavicle -1.44119e-015 3.97569e-015
rhumerus -32.0619 -15.4396 -76.1684
rradius 28.7595
rwrist 7.95674
rhand -13.5046 11.8159
rfingers 7.12502
rthumb 12.6068 -17.7837
lclavicle -1.44119e-015 3.97569e-015
lhumerus -31.3911 10.5853 82.8102
lradius 25.7645
lwrist -10.4275
lhand -14.4159 26.3042
lfingers 7.12502
lthumb 11.7281 55.9559
rfemur -22.4829 -3.47871 18.3904
rtibia 68.7691
rfoot -3.44859 -11.3123
rtoes 18.4601
lfemur -6.76654 1.81329 -28.4681
ltibia 23.0925
lfoot -11.3078 -0.468987
ltoes -0.121799
120
root 9.8276 17.6171 -11.9541 -2.18048 -7.13162 5.09598
lowerback 6.16971 -0.330002 -4.01164
upperback 0.487884 -0.660769 1.83254
thorax -2.89038 -0.269755 4.21275
lowerneck -15.7856 -3.50223 -10.1167
upperneck 26.0178 -3.40196 4.32664
head 11.3331 -2.02485 2.80822
rclavicle -2.56432e-014 3.18055e-015
rhumerus -31.9932 -15.2064 -76.0641
rradius 28.8807
rwrist 7.84241
rhand -13.5589 11.5829
rfingers 7.12502
rthumb 12.5544 -18.0199
lclavicle -2.56432e-014 3.18055e-015
lhumerus -30.8902 10.844 82.9192
lradius 26.1015
lwrist -10.3857
lhand -13.8814 26.6931
lfingers 7.12502
lthumb 12.2435 56.3147
rfemur -23.2739 -3.52865 18.2648
rtibia 68.0391
rfoot -4.46362 -11.3734
rtoes 18.22
lfemur -6.54464 2.10034 -28.6903
ltibia 23.8152
lfoot -12.118 -0.200532
ltoes -1.78294
121
root 9.81256 17.5932 -11.8381 -2.2024 -7.13353 5.43118
lowerback 6.06519 -0.413629 -4.461
upperback 0.611387 -0.798776 1.79837
thorax -2.68414 -0.341461 4.44019
lowerneck -15.8285 -3.52963 -10.2075
upperneck 25.7779 -3.44895 4.47969
head 11.2588 -2.03112 2.86941
rclavicle 1.4064e-014 2.38542e-015
rhumerus -31.8594 -15.5578 -75.959
rradius 28.786
rwrist 8.1792
rhand -13.37 11.7756
rfingers 7.12502
rthumb 12.7365 -17.816
lclavicle 1.4064e-014 2.38542e-015
lhumerus -30.2697 10.7767 82.9773
lradius 26.2575
lwrist -10.3356
lhand -14.0155 26.2289
lfingers 7.12502
lthumb 12.1142 55.8582
rfemur -24.1131 -3.68527 17.9635
rtibia 67.2449
rfoot -5.53944 -11.374
rtoes 17.6844
lfemur -6.62308 2.02059 -29.0429
ltibia 24.4014
lfoot -12.5599 -0.0316517
ltoes -0.928275
122
root 9.79977 17.5554 -11.7216 -2.05353 -7.07516 5.41768
lowerback 6.02779 -0.510488 -4.39538
upperback 0.618198 -0.923038 1.75703
thorax -2.64419 -0.40557 4.36881
lowerneck -16.1775 -3.58461 -10.0783
upperneck 25.8902 -3.53355 4.49929
head 11.3747 -2.05265 2.8416
rclavicle -7.50412e-015 1.59028e-015
rhumerus -31.7627 -16.1879 -75.8287
rradius 28.4992
rwrist 8.58829
rhand -13.4013 12.3141
rfingers 7.12502
rthumb 12.7063 -17.2793
lclavicle -7.50412e-015 1.59028e-015
lhumerus -29.7571 10.3048 83.0152
lradius 26.5807
lwrist -9.56259
lhand -14.4295 25.786
lfingers 7.12502
lthumb 11.7149 55.4385
rfemur -25.0552 -3.92571 18.0605
rtibia 66.3416
rfoot -6.38195 -11.4091
rtoes 16.9175
lfemur -6.81473 1.53329 -29.0202
ltibia 24.7683
lfoot -12.5884 0.218371
ltoes 1.45858
123
root 9.78584 17.5153 -11.6105 -1.98066 -7.09297 5.53598
lowerback 5.99403 -0.64883 -4.53219
upperback 0.663261 -1.11516 1.73852
thorax -2.55562 -0.503477 4.4407
lowerneck -16.1112 -3.608 -10.0724
upperneck 25.6248 -3.57008 4.49675
head 11.2636 -2.06495 2.83044
rclavicle 1.32689e-014 1.19271e-014
rhumerus -31.7932 -15.9764 -75.9648
rradius 28.7035
rwrist 8.27132
rhand -13.6143 12.5854
rfingers 7.12502
rthumb 12.501 -17.0207
lclavicle 1.32689e-014 1.19271e-014
lhumerus -29.2109 10.2152 82.9501
lradius 26.8029
lwrist -9.02372
lhand -14.5586 24.233
lfingers 7.12502
lthumb 11.5904 53.8925
rfemur -25.93 -4.05923 18.0192
rtibia 65.2958
rfoot -6.89141 -11.4255
rtoes 14.3492
lfemur -6.76255 1.59322 -29.147
ltibia 25.0588
lfoot -12.8108 0.326119
ltoes 2.0254
124
root 9.77001 17.4899 -11.5062 -2.09596 -7.12921 5.75925
lowerback 6.32851 -0.737684 -4.76513
upperback 0.621831 -1.26677 1.66681
thorax -2.76584 -0.569972 4.51824
lowerneck -15.8649 -3.63271 -10.1303
upperneck 25.4046 -3.65345 4.63984
head 11.1424 -2.09027 2.87933
rclavicle 3.47873e-015 6.36111e-015
rhumerus -32.0021 -15.7679 -76.0451
rradius 28.8673
rwrist 7.96117
rhand -13.6331 12.6187
rfingers 7.12502
rthumb 12.4829 -16.9885
lclavicle 3.47873e-015 6.36111e-015
lhumerus -28.7705 10.2495 82.7495
lradius 26.6214
lwrist -9.33977
lhand -14.1506 26.3905
lfingers 7.12502
lthumb 11.9839 56.0274
rfemur -26.5597 -4.1064 17.8618
rtibia 64.051
rfoot -7.77714 -11.4689
rtoes 10.8829
lfemur -6.45218 1.9094 -29.3756
ltibia 25.4295
lfoot -13.3275 0.340345
ltoes 0.329305
